<?xml version="1.0" encoding="UTF-8" standalone="no"?>
<!-- Created with Inkscape (http://www.inkscape.org/) -->

<svg
   xmlns:dc="http://purl.org/dc/elements/1.1/"
   xmlns:cc="http://creativecommons.org/ns#"
   xmlns:rdf="http://www.w3.org/1999/02/22-rdf-syntax-ns#"
   xmlns:svg="http://www.w3.org/2000/svg"
   xmlns="http://www.w3.org/2000/svg"
   xmlns:sodipodi="http://sodipodi.sourceforge.net/DTD/sodipodi-0.dtd"
   xmlns:inkscape="http://www.inkscape.org/namespaces/inkscape"
   width="210mm"
   height="297mm"
   viewBox="0 0 744.09448819 1052.3622047"
   id="svg2"
   version="1.1"
   inkscape:version="0.91 r13725"
   sodipodi:docname="skrzynka.svg"
   inkscape:export-filename="/home/rafal/Pulpit/WorkingRepos/GIT_HUB/TEMPLATES/GLUT/TexturesSOILGlut/Data/images/skrzynka.png"
   inkscape:export-xdpi="90.328247"
   inkscape:export-ydpi="90.328247">
  <defs
     id="defs4" />
  <sodipodi:namedview
     id="base"
     pagecolor="#ffffff"
     bordercolor="#666666"
     borderopacity="1.0"
     inkscape:pageopacity="0.0"
     inkscape:pageshadow="2"
     inkscape:zoom="0.7"
     inkscape:cx="-1524.2271"
     inkscape:cy="900.9934"
     inkscape:document-units="px"
     inkscape:current-layer="layer1"
     showgrid="true"
     objecttolerance="10000"
     inkscape:window-width="1920"
     inkscape:window-height="1178"
     inkscape:window-x="0"
     inkscape:window-y="0"
     inkscape:window-maximized="1">
    <inkscape:grid
       type="xygrid"
       id="grid4136"
       snapvisiblegridlinesonly="true"
       dotted="false" />
  </sodipodi:namedview>
  <metadata
     id="metadata7">
    <rdf:RDF>
      <cc:Work
         rdf:about="">
        <dc:format>image/svg+xml</dc:format>
        <dc:type
           rdf:resource="http://purl.org/dc/dcmitype/StillImage" />
        <dc:title />
      </cc:Work>
    </rdf:RDF>
  </metadata>
  <g
     inkscape:label="Layer 1"
     inkscape:groupmode="layer"
     id="layer1">
    <g
       id="g4207"
       transform="matrix(0,-1,1,0,-1125.9337,-1586.9235)">
      <rect
         style="fill:#c87137;fill-opacity:1;stroke:#fc8300;stroke-width:6.5;stroke-miterlimit:4;stroke-dasharray:none;stroke-opacity:1"
         id="rect4209"
         width="560"
         height="100"
         x="-1640"
         y="-50.49493"
         rx="13.1735"
         ry="10.701" />
      <path
         style="fill:#aa4400;fill-rule:evenodd;stroke:none;stroke-width:1px;stroke-linecap:butt;stroke-linejoin:miter;stroke-opacity:1"
         d="m -1641.4286,-31.923514 c 320,0 360,20 360,20 l -360,0 0,-20"
         id="path4211"
         inkscape:connector-curvature="0" />
      <path
         style="fill:#aa4400;fill-opacity:1;fill-rule:evenodd;stroke:none;stroke-width:0.88931566px;stroke-linecap:butt;stroke-linejoin:miter;stroke-opacity:1"
         d="m -1081.3646,25.267143 c 0,0 -80.0392,-15.8098902 -160.0784,-15.8098902 -80.0393,0 -100.0491,15.8098902 -100.0491,15.8098902 0,0 220.1079,0 260.1275,0 z"
         id="path4213"
         inkscape:connector-curvature="0" />
    </g>
    <rect
       style="fill:#ffb380;fill-opacity:1;stroke:none;stroke-width:13.89999962;stroke-miterlimit:4;stroke-dasharray:none;stroke-opacity:1"
       id="rect4138"
       width="560"
       height="560"
       x="-1640"
       y="-507.63779"
       rx="13.1735"
       ry="10.701" />
    <g
       transform="matrix(0,-1,1,0,-1588.7908,-1588.3521)"
       id="g4167">
      <rect
         ry="10.701"
         rx="13.1735"
         y="-50.49493"
         x="-1640"
         height="100"
         width="560"
         id="rect4169"
         style="fill:#c87137;fill-opacity:1;stroke:#fc8300;stroke-width:6.5;stroke-miterlimit:4;stroke-dasharray:none;stroke-opacity:1" />
      <path
         inkscape:connector-curvature="0"
         id="path4171"
         d="m -1641.4286,-31.923514 c 320,0 360,20 360,20 l -360,0 0,-20"
         style="fill:#aa4400;fill-rule:evenodd;stroke:none;stroke-width:1px;stroke-linecap:butt;stroke-linejoin:miter;stroke-opacity:1" />
      <path
         inkscape:connector-curvature="0"
         id="path4173"
         d="m -1081.3646,25.267143 c 0,0 -80.0392,-15.8098902 -160.0784,-15.8098902 -80.0393,0 -100.0491,15.8098902 -100.0491,15.8098902 0,0 220.1079,0 260.1275,0 z"
         style="fill:#aa4400;fill-opacity:1;fill-rule:evenodd;stroke:none;stroke-width:0.88931566px;stroke-linecap:butt;stroke-linejoin:miter;stroke-opacity:1" />
    </g>
    <g
       id="g4175"
       transform="matrix(0,-1,1,0,-1488.7908,-1588.3521)">
      <rect
         style="fill:#c87137;fill-opacity:1;stroke:#fc8300;stroke-width:6.5;stroke-miterlimit:4;stroke-dasharray:none;stroke-opacity:1"
         id="rect4177"
         width="560"
         height="100"
         x="-1640"
         y="-50.49493"
         rx="13.1735"
         ry="10.701" />
      <path
         style="fill:#aa4400;fill-rule:evenodd;stroke:none;stroke-width:1px;stroke-linecap:butt;stroke-linejoin:miter;stroke-opacity:1"
         d="m -1641.4286,-31.923514 c 320,0 360,20 360,20 l -360,0 0,-20"
         id="path4179"
         inkscape:connector-curvature="0" />
      <path
         style="fill:#aa4400;fill-opacity:1;fill-rule:evenodd;stroke:none;stroke-width:0.88931566px;stroke-linecap:butt;stroke-linejoin:miter;stroke-opacity:1"
         d="m -1081.3646,25.267143 c 0,0 -80.0392,-15.8098902 -160.0784,-15.8098902 -80.0393,0 -100.0491,15.8098902 -100.0491,15.8098902 0,0 220.1079,0 260.1275,0 z"
         id="path4181"
         inkscape:connector-curvature="0" />
    </g>
    <g
       transform="matrix(0,-1,1,0,-1388.7908,-1588.3521)"
       id="g4183">
      <rect
         ry="10.701"
         rx="13.1735"
         y="-50.49493"
         x="-1640"
         height="100"
         width="560"
         id="rect4185"
         style="fill:#c87137;fill-opacity:1;stroke:#fc8300;stroke-width:6.5;stroke-miterlimit:4;stroke-dasharray:none;stroke-opacity:1" />
      <path
         inkscape:connector-curvature="0"
         id="path4187"
         d="m -1641.4286,-31.923514 c 320,0 360,20 360,20 l -360,0 0,-20"
         style="fill:#aa4400;fill-rule:evenodd;stroke:none;stroke-width:1px;stroke-linecap:butt;stroke-linejoin:miter;stroke-opacity:1" />
      <path
         inkscape:connector-curvature="0"
         id="path4189"
         d="m -1081.3646,25.267143 c 0,0 -80.0392,-15.8098902 -160.0784,-15.8098902 -80.0393,0 -100.0491,15.8098902 -100.0491,15.8098902 0,0 220.1079,0 260.1275,0 z"
         style="fill:#aa4400;fill-opacity:1;fill-rule:evenodd;stroke:none;stroke-width:0.88931566px;stroke-linecap:butt;stroke-linejoin:miter;stroke-opacity:1" />
    </g>
    <g
       id="g4191"
       transform="matrix(0,-1,1,0,-1288.7908,-1588.3521)">
      <rect
         style="fill:#c87137;fill-opacity:1;stroke:#fc8300;stroke-width:6.5;stroke-miterlimit:4;stroke-dasharray:none;stroke-opacity:1"
         id="rect4193"
         width="560"
         height="100"
         x="-1640"
         y="-50.49493"
         rx="13.1735"
         ry="10.701" />
      <path
         style="fill:#aa4400;fill-rule:evenodd;stroke:none;stroke-width:1px;stroke-linecap:butt;stroke-linejoin:miter;stroke-opacity:1"
         d="m -1641.4286,-31.923514 c 320,0 360,20 360,20 l -360,0 0,-20"
         id="path4195"
         inkscape:connector-curvature="0" />
      <path
         style="fill:#aa4400;fill-opacity:1;fill-rule:evenodd;stroke:none;stroke-width:0.88931566px;stroke-linecap:butt;stroke-linejoin:miter;stroke-opacity:1"
         d="m -1081.3646,25.267143 c 0,0 -80.0392,-15.8098902 -160.0784,-15.8098902 -80.0393,0 -100.0491,15.8098902 -100.0491,15.8098902 0,0 220.1079,0 260.1275,0 z"
         id="path4197"
         inkscape:connector-curvature="0" />
    </g>
    <g
       transform="matrix(0,-1,1,0,-1200.2194,-1588.352)"
       id="g4215">
      <rect
         ry="10.701"
         rx="13.1735"
         y="-50.49493"
         x="-1640"
         height="100"
         width="560"
         id="rect4217"
         style="fill:#c87137;fill-opacity:1;stroke:#fc8300;stroke-width:6.5;stroke-miterlimit:4;stroke-dasharray:none;stroke-opacity:1" />
      <path
         inkscape:connector-curvature="0"
         id="path4219"
         d="m -1641.4286,-31.923514 c 320,0 360,20 360,20 l -360,0 0,-20"
         style="fill:#aa4400;fill-rule:evenodd;stroke:none;stroke-width:1px;stroke-linecap:butt;stroke-linejoin:miter;stroke-opacity:1" />
      <path
         inkscape:connector-curvature="0"
         id="path4221"
         d="m -1081.3646,25.267143 c 0,0 -80.0392,-15.8098902 -160.0784,-15.8098902 -80.0393,0 -100.0491,15.8098902 -100.0491,15.8098902 0,0 220.1079,0 260.1275,0 z"
         style="fill:#aa4400;fill-opacity:1;fill-rule:evenodd;stroke:none;stroke-width:0.88931566px;stroke-linecap:butt;stroke-linejoin:miter;stroke-opacity:1" />
    </g>
    <g
       transform="matrix(0,-1,1,0,-1125.9337,-1586.9235)"
       id="g4199">
      <rect
         ry="10.701"
         rx="13.1735"
         y="-50.49493"
         x="-1640"
         height="100"
         width="560"
         id="rect4201"
         style="fill:#c87137;fill-opacity:1;stroke:#fc8300;stroke-width:6.5;stroke-miterlimit:4;stroke-dasharray:none;stroke-opacity:1" />
      <path
         inkscape:connector-curvature="0"
         id="path4203"
         d="m -1641.4286,-31.923514 c 320,0 360,20 360,20 l -360,0 0,-20"
         style="fill:#aa4400;fill-rule:evenodd;stroke:none;stroke-width:1px;stroke-linecap:butt;stroke-linejoin:miter;stroke-opacity:1" />
      <path
         inkscape:connector-curvature="0"
         id="path4205"
         d="m -1081.3646,25.267143 c 0,0 -80.0392,-15.8098902 -160.0784,-15.8098902 -80.0393,0 -100.0491,15.8098902 -100.0491,15.8098902 0,0 220.1079,0 260.1275,0 z"
         style="fill:#aa4400;fill-opacity:1;fill-rule:evenodd;stroke:none;stroke-width:0.88931566px;stroke-linecap:butt;stroke-linejoin:miter;stroke-opacity:1" />
    </g>
    <g
       id="g4154">
      <rect
         ry="10.701"
         rx="13.1735"
         y="-50.49493"
         x="-1640"
         height="100"
         width="560"
         id="rect4140"
         style="fill:#c87137;fill-opacity:1;stroke:#fc8300;stroke-width:6.5;stroke-miterlimit:4;stroke-dasharray:none;stroke-opacity:1" />
      <path
         inkscape:connector-curvature="0"
         id="path4150"
         d="m -1641.4286,-31.923514 c 320,0 360,20 360,20 l -360,0 0,-20"
         style="fill:#aa4400;fill-rule:evenodd;stroke:none;stroke-width:1px;stroke-linecap:butt;stroke-linejoin:miter;stroke-opacity:1" />
      <path
         inkscape:connector-curvature="0"
         id="path4152"
         d="m -1081.3646,25.267143 c 0,0 -80.0392,-15.8098902 -160.0784,-15.8098902 -80.0393,0 -100.0491,15.8098902 -100.0491,15.8098902 0,0 220.1079,0 260.1275,0 z"
         style="fill:#aa4400;fill-rule:evenodd;stroke:none;stroke-width:0.88931566px;stroke-linecap:butt;stroke-linejoin:miter;stroke-opacity:1;fill-opacity:1" />
    </g>
    <g
       id="g4159"
       transform="translate(1.428571,-455.71429)">
      <rect
         style="fill:#c87137;fill-opacity:1;stroke:#fc8300;stroke-width:6.5;stroke-miterlimit:4;stroke-dasharray:none;stroke-opacity:1"
         id="rect4161"
         width="560"
         height="100"
         x="-1640"
         y="-50.49493"
         rx="13.1735"
         ry="10.701" />
      <path
         style="fill:#aa4400;fill-rule:evenodd;stroke:none;stroke-width:1px;stroke-linecap:butt;stroke-linejoin:miter;stroke-opacity:1"
         d="m -1641.4286,-31.923514 c 320,0 360,20 360,20 l -360,0 0,-20"
         id="path4163"
         inkscape:connector-curvature="0" />
      <path
         style="fill:#aa4400;fill-opacity:1;fill-rule:evenodd;stroke:none;stroke-width:0.88931566px;stroke-linecap:butt;stroke-linejoin:miter;stroke-opacity:1"
         d="m -1081.3646,25.267143 c 0,0 -80.0392,-15.8098902 -160.0784,-15.8098902 -80.0393,0 -100.0491,15.8098902 -100.0491,15.8098902 0,0 220.1079,0 260.1275,0 z"
         id="path4165"
         inkscape:connector-curvature="0" />
    </g>
  </g>
</svg>
